<svg width="30" height="30" viewBox="0 0 30 30" fill="none" xmlns="http://www.w3.org/2000/svg">
<path fill-rule="evenodd" clip-rule="evenodd" d="M15 7.19995C12.882 7.19995 12.6162 7.20895 11.784 7.24675C10.9536 7.28455 10.3866 7.41655 9.89041 7.60915C9.37004 7.80514 8.89869 8.11228 8.50921 8.50915C8.11227 8.8988 7.80512 9.37037 7.60921 9.89095C7.41661 10.3866 7.28521 10.9536 7.24681 11.784C7.20901 12.6162 7.20001 12.882 7.20001 15C7.20001 17.118 7.20901 17.3838 7.24681 18.216C7.28461 19.0464 7.41661 19.6134 7.60921 20.109C7.80901 20.622 8.07541 21.057 8.50921 21.4908C8.89869 21.8876 9.37004 22.1948 9.89041 22.3908C10.3866 22.5828 10.9536 22.7148 11.784 22.7532C12.6162 22.791 12.882 22.8 15 22.8C17.118 22.8 17.3838 22.791 18.216 22.7532C19.0464 22.7154 19.6134 22.5834 20.109 22.3908C20.6296 22.1949 21.1012 21.8877 21.4908 21.4908C21.8878 21.1011 22.1949 20.6295 22.3908 20.109C22.5828 19.6134 22.7148 19.0464 22.7532 18.216C22.791 17.3838 22.8 17.118 22.8 15C22.8 12.882 22.791 12.6162 22.7532 11.784C22.7154 10.9536 22.5834 10.3866 22.3902 9.89095C22.1945 9.37042 21.8875 8.89886 21.4908 8.50915C21.1012 8.11219 20.6296 7.80504 20.109 7.60915C19.6134 7.41715 19.0464 7.28515 18.216 7.24675C17.3838 7.20895 17.118 7.19995 15 7.19995ZM15 8.60515C17.0826 8.60515 17.3292 8.61355 18.1518 8.65075C18.912 8.68555 19.3254 8.81275 19.6002 8.91955C19.9644 9.06115 20.2242 9.22975 20.4972 9.50275C20.7702 9.77575 20.9388 10.0356 21.0804 10.3998C21.1872 10.6746 21.3144 11.0874 21.3492 11.8482C21.3864 12.6702 21.3948 12.9174 21.3948 15C21.3948 17.0826 21.3864 17.3292 21.3492 18.1518C21.3144 18.9126 21.1872 19.3254 21.0804 19.6002C20.9555 19.939 20.7562 20.2455 20.4972 20.4972C20.2456 20.7561 19.939 20.9554 19.6002 21.0804C19.3254 21.1872 18.912 21.3144 18.1518 21.3492C17.3298 21.3864 17.0826 21.3948 15 21.3948C12.9174 21.3948 12.6702 21.3864 11.8482 21.3492C11.0874 21.3144 10.6746 21.1872 10.3998 21.0804C10.061 20.9554 9.75447 20.7561 9.50281 20.4972C9.24387 20.2455 9.04459 19.939 8.91961 19.6002C8.81281 19.3254 8.68561 18.9126 8.65081 18.1518C8.61361 17.3298 8.60521 17.0826 8.60521 15C8.60521 12.9174 8.61361 12.6708 8.65081 11.8482C8.68561 11.0874 8.81281 10.6746 8.91961 10.3998C9.06121 10.0356 9.22981 9.77575 9.50281 9.50275C9.75449 9.24378 10.061 9.0445 10.3998 8.91955C10.6746 8.81275 11.0874 8.68555 11.8482 8.65075C12.6702 8.61355 12.9174 8.60515 15 8.60515Z" fill="white"/>
<path fill-rule="evenodd" clip-rule="evenodd" d="M15 10.7999C13.8861 10.7999 12.8179 11.2424 12.0302 12.0301C11.2425 12.8177 10.8 13.886 10.8 14.9999C10.8 16.1138 11.2425 17.1821 12.0302 17.9698C12.8179 18.7574 13.8861 19.1999 15 19.1999C16.114 19.1999 17.1822 18.7574 17.9699 17.9698C18.7575 17.1821 19.2 16.1138 19.2 14.9999C19.2 13.886 18.7575 12.8177 17.9699 12.0301C17.1822 11.2424 16.114 10.7999 15 10.7999ZM15 17.6999C14.284 17.6999 13.5972 17.4154 13.0909 16.9091C12.5845 16.4027 12.3 15.716 12.3 14.9999C12.3 14.2838 12.5845 13.5971 13.0909 13.0907C13.5972 12.5844 14.284 12.2999 15 12.2999C15.7161 12.2999 16.4029 12.5844 16.9092 13.0907C17.4156 13.5971 17.7 14.2838 17.7 14.9999C17.7 15.716 17.4156 16.4027 16.9092 16.9091C16.4029 17.4154 15.7161 17.6999 15 17.6999ZM20.22 10.8599C20.22 10.986 20.1952 11.1108 20.147 11.2273C20.0987 11.3438 20.028 11.4496 19.9389 11.5387C19.8497 11.6279 19.7439 11.6986 19.6274 11.7468C19.511 11.7951 19.3861 11.8199 19.26 11.8199C19.134 11.8199 19.0091 11.7951 18.8927 11.7468C18.7762 11.6986 18.6704 11.6279 18.5812 11.5387C18.4921 11.4496 18.4214 11.3438 18.3731 11.2273C18.3249 11.1108 18.3 10.986 18.3 10.8599C18.3 10.6053 18.4012 10.3611 18.5812 10.1811C18.7613 10.001 19.0054 9.8999 19.26 9.8999C19.5147 9.8999 19.7588 10.001 19.9389 10.1811C20.1189 10.3611 20.22 10.6053 20.22 10.8599Z" fill="white"/>
</svg>
